<mxfile host="app.diagrams.net" agent="Mozilla/5.0 (Windows NT 10.0; Win64; x64) AppleWebKit/537.36 (KHTML, like Gecko) Chrome/132.0.0.0 Safari/537.36" version="26.0.6">
  <diagram name="Página-1" id="oOaHb9ytCYVvsxWLBDjt">
    <mxGraphModel dx="1365" dy="268" grid="1" gridSize="10" guides="1" tooltips="1" connect="1" arrows="1" fold="1" page="1" pageScale="1" pageWidth="827" pageHeight="1169" math="0" shadow="0">
      <root>
        <mxCell id="0" />
        <mxCell id="1" parent="0" />
        <mxCell id="jZJsDOTmZMWFZSY-hEBv-25" value="" style="ellipse;shape=cloud;whiteSpace=wrap;html=1;" vertex="1" parent="1">
          <mxGeometry x="-370" y="60" width="420" height="390" as="geometry" />
        </mxCell>
        <mxCell id="jZJsDOTmZMWFZSY-hEBv-1" value="RP2040 W" style="shape=image;html=1;verticalAlign=top;verticalLabelPosition=bottom;labelBackgroundColor=#ffffff;imageAspect=0;aspect=fixed;image=https://cdn1.iconfinder.com/data/icons/fruit-136/64/Fruit_iconfree_Filled_Outline_raspberry-healthy-organic-food-fruit_icon-128.png" vertex="1" parent="1">
          <mxGeometry x="40" y="96" width="128" height="128" as="geometry" />
        </mxCell>
        <mxCell id="jZJsDOTmZMWFZSY-hEBv-2" value="Strain Gauge&lt;br&gt;BF350-3AA Y3&amp;nbsp;" style="image;aspect=fixed;perimeter=ellipsePerimeter;html=1;align=center;shadow=0;dashed=0;fontColor=#4277BB;labelBackgroundColor=default;fontSize=12;spacingTop=3;image=img/lib/ibm/users/sensor.svg;" vertex="1" parent="1">
          <mxGeometry x="500" y="20" width="60" height="60" as="geometry" />
        </mxCell>
        <mxCell id="jZJsDOTmZMWFZSY-hEBv-3" value="Sensor de&amp;nbsp;&lt;div&gt;continuidade&lt;/div&gt;" style="image;aspect=fixed;perimeter=ellipsePerimeter;html=1;align=center;shadow=0;dashed=0;fontColor=#4277BB;labelBackgroundColor=default;fontSize=12;spacingTop=3;image=img/lib/ibm/users/sensor.svg;" vertex="1" parent="1">
          <mxGeometry x="500" y="244" width="60" height="60" as="geometry" />
        </mxCell>
        <mxCell id="jZJsDOTmZMWFZSY-hEBv-4" value="Sensor integrado&amp;nbsp;&lt;br&gt;GY-87" style="image;aspect=fixed;perimeter=ellipsePerimeter;html=1;align=center;shadow=0;dashed=0;fontColor=#4277BB;labelBackgroundColor=default;fontSize=12;spacingTop=3;image=img/lib/ibm/users/sensor.svg;" vertex="1" parent="1">
          <mxGeometry x="500" y="130" width="60" height="60" as="geometry" />
        </mxCell>
        <mxCell id="jZJsDOTmZMWFZSY-hEBv-11" value="Serviço &lt;br&gt;de Notificação" style="verticalLabelPosition=bottom;html=1;verticalAlign=top;align=center;strokeColor=#b85450;fillColor=#f8cecc;shape=mxgraph.azure.azure_alert;" vertex="1" parent="1">
          <mxGeometry x="530" y="420" width="50" height="42.5" as="geometry" />
        </mxCell>
        <mxCell id="jZJsDOTmZMWFZSY-hEBv-13" value="&lt;p style=&quot;line-height: 114%;&quot;&gt;&lt;font color=&quot;#0070f2&quot; size=&quot;1&quot;&gt;&lt;b style=&quot;&quot;&gt;RS485&lt;/b&gt;&lt;/font&gt;&lt;/p&gt;" style="rounded=1;whiteSpace=wrap;html=1;arcSize=50;strokeColor=#0070F2;fillColor=#EBF8FF;fontColor=#266f3a;strokeWidth=1.5;" vertex="1" parent="1">
          <mxGeometry x="250" y="152" width="41.99" height="16" as="geometry" />
        </mxCell>
        <mxCell id="jZJsDOTmZMWFZSY-hEBv-14" value="" style="endArrow=none;html=1;rounded=0;entryX=0;entryY=0.5;entryDx=0;entryDy=0;strokeColor=#000000;strokeWidth=1.5;startArrow=classic;startFill=1;" edge="1" target="jZJsDOTmZMWFZSY-hEBv-13" parent="1" source="jZJsDOTmZMWFZSY-hEBv-1">
          <mxGeometry width="50" height="50" relative="1" as="geometry">
            <mxPoint x="220" y="160" as="sourcePoint" />
            <mxPoint x="280" y="150" as="targetPoint" />
          </mxGeometry>
        </mxCell>
        <mxCell id="jZJsDOTmZMWFZSY-hEBv-15" value="" style="endArrow=blockThin;html=1;rounded=0;strokeColor=#000000;strokeWidth=1.5;exitX=1.015;exitY=0.505;exitDx=0;exitDy=0;exitPerimeter=0;endFill=1;endSize=4;startSize=4;startArrow=classic;startFill=1;" edge="1" parent="1">
          <mxGeometry width="50" height="50" relative="1" as="geometry">
            <mxPoint x="279.99985000000004" y="152.00000000000003" as="sourcePoint" />
            <mxPoint x="390.92932359723295" y="63.92" as="targetPoint" />
          </mxGeometry>
        </mxCell>
        <mxCell id="jZJsDOTmZMWFZSY-hEBv-17" value="" style="endArrow=blockThin;html=1;rounded=0;strokeColor=#000000;strokeWidth=1.5;exitX=1;exitY=0.5;exitDx=0;exitDy=0;endFill=1;endSize=4;startSize=4;startArrow=classic;startFill=1;" edge="1" parent="1" source="jZJsDOTmZMWFZSY-hEBv-13" target="jZJsDOTmZMWFZSY-hEBv-20">
          <mxGeometry width="50" height="50" relative="1" as="geometry">
            <mxPoint x="303" y="170" as="sourcePoint" />
            <mxPoint x="398" y="65" as="targetPoint" />
          </mxGeometry>
        </mxCell>
        <mxCell id="jZJsDOTmZMWFZSY-hEBv-18" value="" style="endArrow=blockThin;html=1;rounded=0;strokeColor=#000000;strokeWidth=1.5;endFill=1;endSize=4;startSize=4;entryX=0;entryY=0.5;entryDx=0;entryDy=0;startArrow=classic;startFill=1;" edge="1" parent="1" source="jZJsDOTmZMWFZSY-hEBv-1" target="jZJsDOTmZMWFZSY-hEBv-3">
          <mxGeometry width="50" height="50" relative="1" as="geometry">
            <mxPoint x="313" y="180" as="sourcePoint" />
            <mxPoint x="405.2143859649125" y="258" as="targetPoint" />
          </mxGeometry>
        </mxCell>
        <mxCell id="jZJsDOTmZMWFZSY-hEBv-19" value="Arduino Nano" style="dashed=0;outlineConnect=0;html=1;align=center;labelPosition=center;verticalLabelPosition=bottom;verticalAlign=top;shape=mxgraph.weblogos.arduino;fillColor=#36868D;strokeColor=none" vertex="1" parent="1">
          <mxGeometry x="390" y="40" width="67.4" height="32" as="geometry" />
        </mxCell>
        <mxCell id="jZJsDOTmZMWFZSY-hEBv-20" value="Arduino Nano" style="dashed=0;outlineConnect=0;html=1;align=center;labelPosition=center;verticalLabelPosition=bottom;verticalAlign=top;shape=mxgraph.weblogos.arduino;fillColor=#36868D;strokeColor=none" vertex="1" parent="1">
          <mxGeometry x="390" y="144" width="67.4" height="32" as="geometry" />
        </mxCell>
        <mxCell id="jZJsDOTmZMWFZSY-hEBv-23" value="" style="endArrow=blockThin;html=1;rounded=0;strokeColor=#000000;strokeWidth=1.5;endFill=1;endSize=4;startSize=4;startArrow=classic;startFill=1;" edge="1" parent="1">
          <mxGeometry width="50" height="50" relative="1" as="geometry">
            <mxPoint x="460" y="160" as="sourcePoint" />
            <mxPoint x="500" y="159.76" as="targetPoint" />
          </mxGeometry>
        </mxCell>
        <mxCell id="jZJsDOTmZMWFZSY-hEBv-24" value="" style="endArrow=blockThin;html=1;rounded=0;strokeColor=#000000;strokeWidth=1.5;exitX=1;exitY=0.5;exitDx=0;exitDy=0;endFill=1;endSize=4;startSize=4;entryX=-0.006;entryY=0.564;entryDx=0;entryDy=0;entryPerimeter=0;startArrow=classic;startFill=1;" edge="1" parent="1" target="jZJsDOTmZMWFZSY-hEBv-2">
          <mxGeometry width="50" height="50" relative="1" as="geometry">
            <mxPoint x="457.4" y="55.760000000000005" as="sourcePoint" />
            <mxPoint x="555.4" y="55.760000000000005" as="targetPoint" />
          </mxGeometry>
        </mxCell>
        <mxCell id="jZJsDOTmZMWFZSY-hEBv-26" value="" style="endArrow=blockThin;html=1;rounded=0;strokeColor=#000000;strokeWidth=1.5;endFill=1;endSize=4;startSize=4;entryX=0.905;entryY=0.395;entryDx=0;entryDy=0;startArrow=classic;startFill=1;entryPerimeter=0;" edge="1" parent="1" source="jZJsDOTmZMWFZSY-hEBv-1" target="jZJsDOTmZMWFZSY-hEBv-25">
          <mxGeometry width="50" height="50" relative="1" as="geometry">
            <mxPoint x="178" y="188" as="sourcePoint" />
            <mxPoint x="510" y="284" as="targetPoint" />
          </mxGeometry>
        </mxCell>
        <mxCell id="jZJsDOTmZMWFZSY-hEBv-6" value="HiveMQ" style="outlineConnect=0;dashed=0;verticalLabelPosition=bottom;verticalAlign=top;align=center;html=1;shape=mxgraph.aws3.mqtt_protocol;fillColor=#5294CF;gradientColor=none;" vertex="1" parent="1">
          <mxGeometry x="-180" y="138" width="63" height="66" as="geometry" />
        </mxCell>
        <mxCell id="jZJsDOTmZMWFZSY-hEBv-34" value="CloudServer&lt;div&gt;&lt;br&gt;&lt;/div&gt;" style="sketch=0;aspect=fixed;pointerEvents=1;shadow=0;dashed=0;html=1;strokeColor=none;labelPosition=center;verticalLabelPosition=bottom;verticalAlign=top;align=center;fillColor=#00188D;shape=mxgraph.mscae.enterprise.application_server" vertex="1" parent="1">
          <mxGeometry x="-270" y="258" width="63" height="73.26" as="geometry" />
        </mxCell>
        <mxCell id="jZJsDOTmZMWFZSY-hEBv-39" value="Web APP" style="verticalLabelPosition=bottom;html=1;verticalAlign=top;align=center;strokeColor=none;fillColor=#0080F0;shape=mxgraph.azure.computer;pointerEvents=1;" vertex="1" parent="1">
          <mxGeometry x="-117" y="268" width="75.56" height="68" as="geometry" />
        </mxCell>
        <mxCell id="jZJsDOTmZMWFZSY-hEBv-40" value="" style="endArrow=blockThin;html=1;rounded=0;strokeColor=#000000;strokeWidth=1.5;endFill=1;endSize=4;startSize=4;startArrow=classic;startFill=1;exitX=0.05;exitY=0.91;exitDx=0;exitDy=0;exitPerimeter=0;" edge="1" parent="1" source="jZJsDOTmZMWFZSY-hEBv-6" target="jZJsDOTmZMWFZSY-hEBv-34">
          <mxGeometry width="50" height="50" relative="1" as="geometry">
            <mxPoint x="-117" y="217" as="sourcePoint" />
            <mxPoint x="-220" y="258" as="targetPoint" />
          </mxGeometry>
        </mxCell>
        <mxCell id="jZJsDOTmZMWFZSY-hEBv-41" value="" style="endArrow=blockThin;html=1;rounded=0;strokeColor=#000000;strokeWidth=1.5;endFill=1;endSize=4;startSize=4;startArrow=classic;startFill=1;entryX=0.607;entryY=-0.011;entryDx=0;entryDy=0;entryPerimeter=0;" edge="1" parent="1" source="jZJsDOTmZMWFZSY-hEBv-6" target="jZJsDOTmZMWFZSY-hEBv-39">
          <mxGeometry width="50" height="50" relative="1" as="geometry">
            <mxPoint x="10" y="114" as="sourcePoint" />
            <mxPoint x="-93" y="155" as="targetPoint" />
          </mxGeometry>
        </mxCell>
        <mxCell id="jZJsDOTmZMWFZSY-hEBv-43" value="" style="shape=cylinder3;whiteSpace=wrap;html=1;boundedLbl=1;backgroundOutline=1;size=15;" vertex="1" parent="1">
          <mxGeometry x="-60" y="430" width="500" height="180" as="geometry" />
        </mxCell>
        <mxCell id="jZJsDOTmZMWFZSY-hEBv-49" style="edgeStyle=orthogonalEdgeStyle;rounded=0;orthogonalLoop=1;jettySize=auto;html=1;" edge="1" parent="1" source="jZJsDOTmZMWFZSY-hEBv-44" target="jZJsDOTmZMWFZSY-hEBv-45">
          <mxGeometry relative="1" as="geometry" />
        </mxCell>
        <mxCell id="jZJsDOTmZMWFZSY-hEBv-44" value="Organização dos dados coletados" style="rounded=0;whiteSpace=wrap;html=1;fillColor=#fff2cc;strokeColor=#d6b656;" vertex="1" parent="1">
          <mxGeometry x="-30" y="480" width="80" height="110" as="geometry" />
        </mxCell>
        <mxCell id="jZJsDOTmZMWFZSY-hEBv-50" style="edgeStyle=orthogonalEdgeStyle;rounded=0;orthogonalLoop=1;jettySize=auto;html=1;" edge="1" parent="1" source="jZJsDOTmZMWFZSY-hEBv-45" target="jZJsDOTmZMWFZSY-hEBv-46">
          <mxGeometry relative="1" as="geometry" />
        </mxCell>
        <mxCell id="jZJsDOTmZMWFZSY-hEBv-45" value="Classificação dos dados baseado na escala de risco&lt;span style=&quot;color: rgba(0, 0, 0, 0); font-family: monospace; font-size: 0px; text-align: start; text-wrap-mode: nowrap;&quot;&gt;%3CmxGraphModel%3E%3Croot%3E%3CmxCell%20id%3D%220%22%2F%3E%3CmxCell%20id%3D%221%22%20parent%3D%220%22%2F%3E%3CmxCell%20id%3D%222%22%20value%3D%22Organiza%C3%A7%C3%A3o%20dos%20dados%20coletados%22%20style%3D%22rounded%3D0%3BwhiteSpace%3Dwrap%3Bhtml%3D1%3B%22%20vertex%3D%221%22%20parent%3D%221%22%3E%3CmxGeometry%20x%3D%22-30%22%20y%3D%22480%22%20width%3D%2280%22%20height%3D%22110%22%20as%3D%22geometry%22%2F%3E%3C%2FmxCell%3E%3C%2Froot%3E%3C%2FmxGraphModel%3E&lt;/span&gt;" style="rounded=0;whiteSpace=wrap;html=1;fillColor=#d5e8d4;strokeColor=#82b366;" vertex="1" parent="1">
          <mxGeometry x="80" y="480" width="80" height="110" as="geometry" />
        </mxCell>
        <mxCell id="jZJsDOTmZMWFZSY-hEBv-51" value="" style="edgeStyle=orthogonalEdgeStyle;rounded=0;orthogonalLoop=1;jettySize=auto;html=1;" edge="1" parent="1" source="jZJsDOTmZMWFZSY-hEBv-46" target="jZJsDOTmZMWFZSY-hEBv-47">
          <mxGeometry relative="1" as="geometry">
            <Array as="points">
              <mxPoint x="330" y="535" />
              <mxPoint x="330" y="535" />
            </Array>
          </mxGeometry>
        </mxCell>
        <mxCell id="jZJsDOTmZMWFZSY-hEBv-46" value="Criação de relatórios" style="rounded=0;whiteSpace=wrap;html=1;fillColor=#dae8fc;strokeColor=#6c8ebf;" vertex="1" parent="1">
          <mxGeometry x="190" y="480" width="80" height="110" as="geometry" />
        </mxCell>
        <mxCell id="jZJsDOTmZMWFZSY-hEBv-53" style="edgeStyle=orthogonalEdgeStyle;rounded=0;orthogonalLoop=1;jettySize=auto;html=1;" edge="1" parent="1" source="jZJsDOTmZMWFZSY-hEBv-47" target="jZJsDOTmZMWFZSY-hEBv-11">
          <mxGeometry relative="1" as="geometry">
            <mxPoint x="520" y="460" as="targetPoint" />
            <Array as="points">
              <mxPoint x="350" y="440" />
            </Array>
          </mxGeometry>
        </mxCell>
        <mxCell id="jZJsDOTmZMWFZSY-hEBv-47" value="Geração de alertas" style="rounded=0;whiteSpace=wrap;html=1;fillColor=#f8cecc;strokeColor=#b85450;" vertex="1" parent="1">
          <mxGeometry x="310" y="480" width="80" height="110" as="geometry" />
        </mxCell>
        <mxCell id="jZJsDOTmZMWFZSY-hEBv-52" style="edgeStyle=orthogonalEdgeStyle;rounded=0;orthogonalLoop=1;jettySize=auto;html=1;entryX=-0.006;entryY=0.495;entryDx=0;entryDy=0;entryPerimeter=0;" edge="1" parent="1" target="jZJsDOTmZMWFZSY-hEBv-43">
          <mxGeometry relative="1" as="geometry">
            <mxPoint x="-170" y="430" as="sourcePoint" />
            <mxPoint x="-71.5" y="519.8" as="targetPoint" />
            <Array as="points">
              <mxPoint x="-170" y="520" />
              <mxPoint x="-71" y="520" />
            </Array>
          </mxGeometry>
        </mxCell>
      </root>
    </mxGraphModel>
  </diagram>
</mxfile>
